<?xml version="1.0" standalone="no"?>
<!DOCTYPE svg PUBLIC "-//W3C//DTD SVG 20010904//EN"
 "http://www.w3.org/TR/2001/REC-SVG-20010904/DTD/svg10.dtd">
<svg version="1.0" xmlns="http://www.w3.org/2000/svg"
 width="1800.000000pt" height="1800.000000pt" viewBox="0 0 1800.000000 1800.000000"
 preserveAspectRatio="xMidYMid meet">
<metadata>
Created by potrace 1.14, written by Peter Selinger 2001-2017
</metadata>
<g transform="translate(0.000000,1800.000000) scale(0.100000,-0.100000)"
fill="#000000" stroke="none">
<path d="M16905 12866 c-207 -54 -415 -154 -665 -321 -306 -204 -509 -380
-1025 -886 -554 -542 -882 -844 -1269 -1169 -1179 -987 -2401 -1679 -3561
-2014 -502 -146 -926 -225 -1455 -273 -273 -25 -967 -25 -1265 0 -1025 86
-1918 297 -3075 727 -694 258 -993 343 -1414 404 -481 70 -982 51 -1376 -50
-114 -29 -220 -77 -220 -98 0 -31 45 -39 310 -52 618 -31 894 -67 1290 -170
164 -43 380 -112 380 -123 0 -15 -358 -360 -470 -453 -304 -252 -561 -418
-925 -599 -121 -60 -211 -109 -199 -109 11 0 91 20 177 45 550 158 1113 438
1560 777 42 32 77 57 77 54 0 -14 -153 -266 -227 -375 -203 -298 -443 -565
-725 -806 -32 -27 -56 -51 -53 -53 6 -7 179 97 315 189 315 214 627 495 856
774 60 73 80 91 82 76 4 -23 -32 -263 -54 -366 -75 -350 -199 -706 -346 -999
-22 -43 -37 -80 -34 -83 12 -12 228 291 341 479 42 71 113 199 156 285 44 87
77 147 74 133 -3 -14 -18 -95 -35 -180 -70 -357 -192 -751 -342 -1104 -32 -76
-57 -141 -54 -143 6 -7 92 127 196 303 214 366 412 815 533 1209 20 66 48 156
62 200 l25 80 -5 -345 c-4 -310 -11 -434 -30 -552 -13 -77 14 -34 73 115 106
266 192 539 241 767 12 52 23 105 26 118 7 27 35 29 35 2 0 -55 -86 -387 -151
-582 -154 -462 -357 -880 -611 -1261 -44 -65 -77 -121 -74 -124 7 -7 128 122
264 280 133 155 282 355 397 529 49 76 90 136 92 134 2 -1 -8 -29 -21 -62
-134 -338 -346 -717 -558 -996 -32 -43 -55 -78 -50 -78 15 0 262 255 354 365
335 401 560 777 759 1270 l49 120 -7 -125 c-5 -69 -8 -375 -8 -680 1 -433 5
-606 18 -785 29 -379 87 -905 106 -965 4 -14 11 134 14 335 7 380 33 818 67
1125 25 225 58 481 63 487 2 2 7 -31 11 -74 9 -96 50 -379 77 -533 41 -228 48
-267 83 -430 41 -192 90 -393 146 -593 41 -151 131 -445 148 -487 11 -24 11
-25 11 -2 1 12 -12 95 -29 185 -105 577 -162 1219 -158 1782 1 127 3 212 5
190 31 -347 149 -948 259 -1320 14 -49 31 -106 36 -125 11 -39 28 -63 28 -40
0 8 -7 65 -14 125 -63 485 -60 1255 7 1785 l14 105 7 -90 c4 -49 11 -155 17
-235 35 -481 119 -975 249 -1460 36 -135 84 -283 88 -272 2 6 -6 95 -17 199
-44 403 -52 970 -21 1373 12 142 27 249 29 201 2 -36 67 -370 117 -601 138
-628 358 -1350 589 -1932 8 -19 35 -25 35 -7 0 6 -11 54 -25 107 -118 469
-234 1110 -290 1607 -15 132 -45 445 -45 473 0 7 22 -29 48 -80 72 -138 186
-317 196 -307 2 2 -8 60 -24 129 -26 119 -52 329 -29 235 57 -234 177 -596
279 -840 56 -134 147 -335 156 -344 13 -13 11 13 -6 79 -70 267 -127 584 -150
840 -6 69 -13 139 -16 155 -3 17 18 -28 45 -100 66 -174 83 -215 90 -215 3 0
6 102 6 227 0 126 4 255 9 288 l8 60 33 -165 c39 -194 70 -331 130 -570 97
-388 255 -897 255 -823 0 6 -9 78 -20 159 -42 311 -91 895 -89 1069 l0 70 15
-50 c101 -336 281 -650 517 -900 89 -95 195 -190 202 -183 3 3 -16 31 -41 64
-207 263 -348 590 -408 943 -19 110 -34 431 -20 431 5 0 20 -44 33 -97 83
-333 242 -716 410 -988 145 -235 385 -505 573 -645 146 -110 163 -113 67 -14
-48 49 -113 120 -145 159 -138 166 -307 464 -387 685 -54 148 -53 151 13 50
86 -132 190 -258 306 -372 95 -94 185 -170 191 -164 2 2 -34 53 -80 115 -137
182 -240 379 -312 596 -30 93 -79 294 -73 301 2 1 32 -53 67 -122 63 -123 90
-155 77 -91 -15 71 -26 197 -26 297 l1 105 48 -125 c171 -445 434 -897 738
-1268 111 -135 281 -322 294 -322 4 0 -32 60 -80 133 -286 427 -493 889 -620
1377 -43 166 -85 369 -79 376 3 2 19 -35 38 -84 233 -617 767 -1112 1392
-1290 138 -40 168 -46 168 -34 0 5 -12 13 -27 17 -51 12 -287 132 -378 192
-295 195 -532 458 -683 759 -38 75 -92 201 -92 213 0 3 21 -18 47 -48 158
-181 420 -354 667 -440 100 -35 145 -37 81 -4 -56 29 -190 126 -255 185 -74
67 -169 177 -232 268 l-52 75 104 -97 c256 -237 514 -417 920 -640 259 -143
920 -463 941 -456 5 2 -66 50 -158 108 -404 253 -790 524 -1038 731 -192 160
-483 466 -550 578 -4 7 32 -21 81 -62 369 -319 846 -540 1533 -711 163 -41
151 -39 151 -27 0 5 -17 15 -37 22 -79 25 -384 164 -532 240 -281 147 -534
318 -698 473 l-78 75 155 -77 c85 -43 214 -101 285 -131 146 -60 468 -170 514
-176 17 -2 45 -15 63 -28 53 -40 235 -149 348 -209 118 -63 319 -152 326 -145
3 3 -44 39 -104 80 -114 79 -309 235 -352 282 -19 20 2 11 80 -36 58 -34 159
-89 225 -122 159 -80 349 -186 432 -241 37 -25 69 -43 72 -40 12 12 -237 223
-399 339 -52 37 -142 106 -198 153 -116 95 -354 324 -307 296 167 -100 341
-191 485 -254 41 -18 109 -59 150 -90 508 -386 1146 -665 1798 -785 152 -28
149 -28 137 -16 -6 5 -53 21 -106 35 -541 146 -1098 441 -1549 819 -87 72
-244 217 -237 217 2 0 61 -25 133 -56 651 -281 1142 -447 1583 -534 246 -48
244 -42 -16 45 -215 72 -472 179 -695 291 -163 81 -496 261 -513 276 -5 4 17
-1 50 -12 97 -34 276 -80 413 -106 142 -27 142 -27 142 -16 0 5 -25 16 -56 26
-169 53 -473 199 -649 311 -64 41 -83 61 -32 34 77 -42 319 -108 537 -148 197
-36 1267 -211 1286 -210 29 1 -7 13 -220 75 -105 30 -258 75 -341 99 -82 24
-251 73 -375 109 -484 140 -628 193 -801 292 -81 47 -96 60 -56 51 12 -3 87
-17 167 -31 80 -14 300 -52 490 -86 190 -34 379 -67 420 -74 134 -24 107 -9
-146 79 -265 93 -464 166 -434 161 14 -3 88 -18 165 -35 290 -61 754 -128
1194 -171 99 -10 134 -8 94 4 -10 3 -155 39 -323 80 -377 92 -921 248 -908
261 1 2 46 -5 98 -16 96 -20 333 -59 359 -59 29 0 -5 17 -104 55 -295 111
-603 266 -706 355 -22 19 -19 18 26 -3 150 -73 475 -188 695 -246 385 -101
1045 -230 1440 -281 41 -6 89 -12 105 -15 63 -10 -4 15 -136 50 -466 126
-1140 354 -1474 500 -124 54 -395 192 -395 201 0 2 24 -6 53 -17 282 -113 683
-216 1052 -268 745 -107 1136 -117 1490 -40 174 38 389 120 503 193 53 33 49
45 -5 18 -314 -158 -762 -197 -1278 -111 -501 83 -1034 227 -1404 380 -128 53
-391 183 -391 194 0 2 27 -7 59 -20 73 -28 240 -78 368 -110 132 -32 280 -58
578 -99 138 -20 284 -41 325 -47 92 -13 338 -58 363 -65 9 -3 17 -1 17 4 0 14
-170 76 -580 212 -357 118 -635 218 -627 226 2 2 64 -17 138 -41 271 -92 476
-135 728 -155 228 -17 232 -13 42 44 -68 20 -167 53 -220 73 -99 37 -331 148
-331 159 0 4 15 3 33 0 86 -16 361 -47 537 -61 339 -27 1012 -44 980 -26 -8 5
-76 18 -150 30 -344 54 -742 131 -960 187 -200 51 -355 97 -342 102 6 2 74 -6
149 -17 76 -11 255 -36 398 -56 143 -19 318 -44 390 -55 116 -17 147 -19 134
-6 -7 7 -919 346 -931 346 -6 0 -9 2 -6 5 3 3 40 -2 84 -10 187 -35 485 -71
954 -116 188 -18 302 -23 570 -23 358 -1 369 0 516 55 69 26 70 40 2 22 -123
-33 -353 -27 -608 18 -145 25 -333 64 -430 89 l-75 19 80 -4 c44 -3 121 -7
171 -10 51 -4 94 -2 98 3 3 5 -30 17 -72 26 -42 10 -95 26 -117 36 -22 10 -74
32 -116 49 -125 49 -380 163 -376 167 4 4 319 -59 459 -92 106 -25 114 -14 23
35 -44 23 -69 39 -55 36 14 -3 120 -21 235 -40 375 -62 828 -110 1135 -120
160 -6 176 3 48 25 -434 76 -1062 244 -1458 390 -128 48 -285 123 -366 177
-59 39 -66 47 -31 34 124 -46 684 -76 1145 -60 253 9 548 35 785 69 188 27
370 60 379 68 4 4 -196 7 -445 8 -352 0 -490 4 -622 17 -563 58 -999 141
-1181 226 -81 38 -184 120 -184 146 0 7 48 64 106 126 100 107 265 293 684
774 460 526 722 770 1150 1072 131 92 170 126 170 146 0 33 -44 34 -165 3z
m-5809 -5574 c145 -123 215 -181 244 -205 51 -41 21 -24 -123 70 -120 78 -347
240 -347 248 0 10 198 -90 226 -113z"/>
</g>
</svg>
